<svg xmlns="http://www.w3.org/2000/svg" viewBox="0 0 2048 1118" width="2048" height="1118" role="img" aria-label="Weevil">
  <defs>
    <linearGradient id="weevil-grad" x1="0" y1="0" x2="1" y2="1">
      <stop offset="0" stop-color="#38BDF8" />
      <stop offset="0.55" stop-color="#818CF8" />
      <stop offset="1" stop-color="#C084FC" />
    </linearGradient>
  </defs>
  <path fill="url(#weevil-grad)" d="M1107.4 390.4c-16.8 1.7-32.3 10.1-49.3 10.3-27.2-5.4-55.4-7.6-82.9-2-42.9 9.3-90.8 17.6-122.1 51.1-18.7 30.5-52.8 45-79.5 67.2-36.5 25.4-50 69.3-66 108.4-25.4 23.3 0.7 73.8 32.9 49.7 15.9-28.1 27.7-58.4 43.6-86.6 12.5-27.4 42.8-40.1 68.7-51.9 26.5-2.9 57.3 15.2 79.5 31.4 28.5 15.1-4.2 27-20 31.6-31.6 18.3-29.6 59.9-31.8 91.6 4.3 29.3-42.9 30-39.1 51 29.1 3.9 57.7-22.8 54.7-52.7-7.6-33 22.6-34.1 46.4-40.2 35.4-7.3 43.8-43.5 55.8-71.6 20.3-5.5 28.7 33.3 30.3 50.8-0.3 39.1 47.5 34.6 62.8 59.9-7.6 25.7 11.8 44.6 36.1 49.2 20.7 10.5 17.4-14.6 0.3-16.8-38.5-9-12.9-56.5-29.3-83.4-7.9-22.3-64.9-24.8-39.1-56.5 7.3-35.2 45.3-7.6 66.1-4.5 24 7.7 51.5 29 76-11.4-32.4-14.1-66.7-22.9-100.3-33.8-26-5.9-51.7-27.4-56.4-54.3 17-25.4 22.5-55.8 29-85.6 35.6-8.2 73.1-7.5 108.5 1.5 76.5 18 141.4 83.5 150.2 162.9 16.2 45-37.1 18.7-54.1 35.8 12.5 15.8 52.7 15.4 71.6 1.4 4.3-68.9-28.8-138.8-84.6-179.4-46-31.3-102.8-45.6-158.5-49.5z" />
</svg>
