<svg xmlns="http://www.w3.org/2000/svg" width="1200" height="630" viewBox="0 0 1200 630">
  <rect width="1200" height="630" fill="#0A0A0A"/>
  <rect x="56" y="56" width="1088" height="518" fill="none" stroke="rgba(255,255,255,0.18)"/>
  <line x1="660" y1="56" x2="660" y2="574" stroke="rgba(255,255,255,0.18)"/>

  <!-- wordmark -->
  <svg x="80" y="78" width="60" height="60" viewBox="0 0 512 512"><rect width="512" height="512" rx="120" fill="#0A0A0A"/><svg x="96" y="96" width="320" height="320" viewBox="0 0 490 491"><path d="M-0.00,374.50 L-0.00,294.50 L168.75,294.50 C233.93,300.98 260.17,382.52 210.95,426.43 C163.42,465.13 99.11,431.86 88.63,381.25 C59.42,382.53 22.91,383.36 -0.00,374.50 Z" fill="#FFFFFF"/><path d="M337.75,490.92 L228.75,490.97 C313.83,448.76 293.14,315.53 207.00,291.04 L207.01,146.25 C211.57,46.43 334.43,38.09 356.05,121.03 C366.56,161.34 348.45,195.98 325.35,212.75 C322.71,214.66 307.17,222.42 306.40,225.59 C304.60,233.02 339.68,297.10 344.66,306.75 C381.72,371.24 410.52,437.51 337.75,490.92 Z" fill="#FFFFFF"/><path d="M376.57,141.50 C400.83,164.97 429.17,187.34 476.34,187.42 C486.83,191.21 488.70,200.40 488.11,214.28 C486.14,225.44 451.49,229.82 436.75,230.49 C427.23,230.92 334.63,229.96 333.75,229.25 C333.06,228.69 333.72,228.14 333.75,228.10 C359.74,210.92 375.91,183.82 376.57,141.50 Z" fill="#FFFFFF"/><path d="M305.97,120.56 C324.53,134.97 308.57,164.98 285.47,151.47 C269.05,137.87 283.12,110.17 305.97,120.56 Z" fill="#FF453A"/></svg></svg>
  <text x="156" y="122" font-family="'Archivo', 'Liberation Sans', Arial, sans-serif" font-weight="800" font-size="34" letter-spacing="1" fill="#FFFFFF">MALLARD</text>

  <!-- eyebrow -->
  <g font-family="'IBM Plex Mono', 'DejaVu Sans Mono', monospace" font-size="13" letter-spacing="3">
    <text x="80" y="270" fill="#FF453A" font-weight="600">01</text>
    <line x1="108" y1="265" x2="140" y2="265" stroke="#FFFFFF"/>
    <text x="152" y="270" fill="#8C8C8C">COPILOT SPEND TRACKER · VS CODE</text>
  </g>

  <!-- headline -->
  <text x="78" y="356" font-family="'Archivo', 'Liberation Sans', Arial, sans-serif" font-weight="800" font-size="66" letter-spacing="-2" fill="#FFFFFF">Get your Copilot</text>
  <text x="78" y="424" font-family="'Archivo', 'Liberation Sans', Arial, sans-serif" font-weight="800" font-size="66" letter-spacing="-2" fill="#FFFFFF">spend all in a <tspan fill="#FF453A">row.</tspan></text>
  <text x="80" y="466" font-family="'Hanken Grotesk', 'Liberation Sans', Arial, sans-serif" font-size="17" fill="#C9C9C9">Reads Copilot's local logs · live dashboard · no sign-in.</text>

  
    <g font-family="'IBM Plex Mono', 'DejaVu Sans Mono', monospace">
      <line x1="720" y1="150" x2="1144" y2="150" stroke="#FFFFFF" stroke-width="1.5"/>
      <text x="720" y="142" font-size="13" letter-spacing="2" fill="#8C8C8C">THIS MONTH</text>
      <text x="1144" y="142" font-size="13" letter-spacing="1" fill="#FF453A" text-anchor="end">● LIVE</text>
      <text x="720" y="232" font-family="'Archivo', 'Liberation Sans', Arial, sans-serif" font-weight="800" font-size="78" letter-spacing="-2" fill="#FFFFFF">$38.56</text>
      <text x="720" y="262" font-family="'Hanken Grotesk', 'Liberation Sans', Arial, sans-serif" font-size="15" fill="#C9C9C9">4,820 credits · 62% of $50 budget</text>
      <rect x="720" y="284" width="424" height="13" fill="none" stroke="rgba(255,255,255,0.18)"/>
      <rect x="720" y="284" width="212" height="13" fill="#FFFFFF"/>
      <rect x="932" y="284" width="51" height="13" fill="#FF453A"/>
      <g font-size="13.5">
        <line x1="720" y1="338" x2="1144" y2="338" stroke="rgba(255,255,255,0.18)"/>
        <text x="720" y="364" fill="#8C8C8C">Today</text><text x="1144" y="364" fill="#FFFFFF" text-anchor="end">$6.42</text>
        <line x1="720" y1="382" x2="1144" y2="382" stroke="rgba(255,255,255,0.18)"/>
        <text x="720" y="408" fill="#8C8C8C">Projected</text><text x="1144" y="408" fill="#FF453A" text-anchor="end">$61.40</text>
        <line x1="720" y1="426" x2="1144" y2="426" stroke="rgba(255,255,255,0.18)"/>
        <text x="720" y="452" fill="#8C8C8C">Top model</text><text x="1144" y="452" fill="#FFFFFF" text-anchor="end">sonnet-4.5</text>
        <line x1="720" y1="470" x2="1144" y2="470" stroke="rgba(255,255,255,0.18)"/>
      </g>
    </g>

  <!-- footer -->
  <text x="80" y="556" font-family="'IBM Plex Mono', 'DejaVu Sans Mono', monospace" font-size="12.5" letter-spacing="2" fill="#8C8C8C">MALLARD · v2.0 · BUILT FOR VS CODE · MIT</text>
  <text x="1120" y="556" font-family="'IBM Plex Mono', 'DejaVu Sans Mono', monospace" font-size="12.5" letter-spacing="1" fill="#8C8C8C" text-anchor="end">github.com/RedPandaMC/Mallard</text>
</svg>