<svg xmlns="http://www.w3.org/2000/svg" width="1200" height="630" viewBox="0 0 1200 630">
  <defs>
    <pattern id="ht" width="6" height="6" patternUnits="userSpaceOnUse">
      <circle cx="1.2" cy="1.2" r="1" fill="#2A241B"/>
    </pattern>
    <linearGradient id="rule-grad" x1="0" y1="0" x2="1" y2="0">
      <stop offset="0" stop-color="#FFB454"/><stop offset="0.5" stop-color="#FF6B81"/><stop offset="1" stop-color="#B45CFF"/>
    </linearGradient>
  </defs>

  <rect width="1200" height="630" fill="#F3EAD9"/>
  <rect width="1200" height="630" fill="url(#ht)" opacity="0.05"/>
  <rect x="44" y="44" width="1112" height="542" fill="none" stroke="rgba(42,36,27,0.38)" stroke-width="1.4"/>
  <path d="M37 44H51M44 37V51" stroke="rgba(42,36,27,0.38)" stroke-width="1.4"/><path d="M1149 44H1163M1156 37V51" stroke="rgba(42,36,27,0.38)" stroke-width="1.4"/><path d="M37 586H51M44 579V593" stroke="rgba(42,36,27,0.38)" stroke-width="1.4"/><path d="M1149 586H1163M1156 579V593" stroke="rgba(42,36,27,0.38)" stroke-width="1.4"/>

  <!-- catalogue header -->
  <text x="70" y="84" font-family="'JetBrains Mono', 'DejaVu Sans Mono', monospace" font-size="15" letter-spacing="3.5" fill="#6F6555">FIELD SPECIMEN &#183; No.001</text>
  <text x="1130" y="84" font-family="Fraunces, 'Liberation Serif', Georgia, serif" font-style="italic" font-size="20" fill="#6F6555" text-anchor="end">Curculionoidea copiloti</text>

  <!-- specimen mark -->
  <svg x="610" y="150" width="380" height="330" viewBox="0 0 2048 2048">
  <defs><linearGradient id="weevil-grad" x1="0" y1="0" x2="1" y2="1">
    <stop offset="0" stop-color="#FFB454"/><stop offset="0.5" stop-color="#FF6B81"/><stop offset="1" stop-color="#B45CFF"/>
  </linearGradient></defs>
  
  <g transform="translate(1024, 1024) scale(2.2) translate(-1024, -1024)">
    <g transform="translate(0, 465)">
      <path fill="url(#weevil-grad)" d="m 1107.4453,386.70898 a 3.7095854,3.7095854 0 0 0 -0.3828,0.0176 c -17.7172,1.75879 -33.0428,10.02413 -48.7891,10.27149 -27.3261,-5.33431 -55.8319,-7.58204 -83.81442,-1.85938 a 3.7095854,3.7095854 0 0 0 -0.0371,0.01 c -42.8118,9.23001 -91.6149,17.55117 -124.00585,52.23437 a 3.7095854,3.7095854 0 0 0 -0.44922,0.58789 c -17.96294,29.21723 -51.43657,43.61745 -78.68555,66.29688 -0.004,0.003 -0.008,0.007 -0.0117,0.01 -37.38603,26.14927 -51.03836,70.64506 -66.8457,109.30274 -13.33775,13.00369 -13.1296,32.83074 -5.11719,46.44336 4.08439,6.93913 10.29109,12.46004 18.00977,14.47461 7.71867,2.01457 16.70691,0.26312 25.44531,-6.26368 a 3.7095854,3.7095854 0 0 0 1.01172,-1.14843 c 16.06939,-28.4688 27.82838,-58.73375 43.55078,-86.58399 a 3.7095854,3.7095854 0 0 0 0.14453,-0.28515 c 11.64515,-25.55142 40.34989,-38.01829 66.22461,-49.76172 24.40165,-2.37164 54.6082,14.83984 76.45508,30.67773 a 3.7095854,3.7095854 0 0 0 0.4414,0.27344 c 6.68283,3.54227 8.90044,6.6157 9.22071,8.13867 0.32027,1.52297 -0.44993,3.14525 -3.23438,5.44336 -5.5689,4.59623 -17.53893,8.90481 -25.28125,11.17383 a 3.7095854,3.7095854 0 0 0 -0.81445,0.34766 c -16.90761,9.78427 -24.87732,25.96113 -28.72852,43.16601 -3.85119,17.20489 -3.85645,35.71373 -4.91601,51.41016 a 3.7095854,3.7095854 0 0 0 0.0312,0.79101 c 0.93353,6.34017 -0.75704,10.53243 -4.00782,14.42774 -3.25077,3.8953 -8.27829,7.23685 -13.59765,10.42383 -5.31936,3.18698 -10.88899,6.18467 -15.22461,10.13281 -4.33563,3.94813 -7.45766,9.55016 -6.26953,16.13672 a 3.7095854,3.7095854 0 0 0 3.16992,3.01953 c 31.65206,4.13914 62.1497,-24.38217 58.88867,-56.78125 a 3.7095854,3.7095854 0 0 0 -0.0781,-0.46485 c -1.78583,-7.72005 -1.27368,-13.08183 0.46289,-17.03515 1.73656,-3.95332 4.78984,-6.78278 9.09765,-9.11914 8.57641,-4.65145 21.82023,-6.60304 34.01368,-9.70117 18.81767,-3.88882 30.7502,-15.75901 39.08007,-29.75586 7.97919,-13.40759 13.02059,-28.76819 18.63086,-42.15235 3.0629,-0.39945 5.4705,0.49847 7.9941,2.65821 2.9818,2.55178 5.8048,6.97789 8.0879,12.27343 4.5663,10.59109 7.0592,24.48582 7.8106,32.88282 l -0.014,-0.36133 c -0.091,10.52446 3.2108,18.6417 8.418,24.72461 5.2071,6.08291 12.0986,10.17882 19.1914,13.72656 13.681,6.84311 27.9264,11.95733 34.9453,22.26758 -3.3188,13.17633 -0.1018,25.1336 7.1719,34.05078 7.5013,9.19624 18.9925,15.3033 31.6777,17.81055 5.4672,2.70099 9.9806,3.55562 13.7813,2.06054 3.9002,-1.53421 5.7373,-5.78317 5.4707,-9.48047 -0.5333,-7.39459 -6.9571,-15.25376 -17.2325,-16.54882 l 0.3829,0.0684 c -8.8277,-2.06506 -13.274,-5.90484 -16.0821,-11.16796 -2.808,-5.26312 -3.7679,-12.3177 -3.9961,-20.27539 -0.4563,-15.91539 2.2355,-35.18569 -6.8984,-50.19532 l 0.3301,0.69336 c -2.4258,-6.87628 -8.2321,-11.62041 -14.5567,-15.6582 -6.3245,-4.0378 -13.4108,-7.43796 -19.1836,-10.98047 -5.7727,-3.54251 -9.9505,-7.21027 -11.2773,-10.83594 -1.3269,-3.62566 -0.7476,-8.08112 5.2598,-15.47851 a 3.7095854,3.7095854 0 0 0 0.7519,-1.58203 c 1.6808,-8.08353 4.6867,-11.63218 8.4414,-13.4043 3.7547,-1.77212 8.9999,-1.72296 15.1133,-0.36914 12.2268,2.70763 26.7035,10.41359 38.3789,12.16992 l -0.5762,-0.13477 c 11.4673,3.66221 24.3771,10.91771 37.836,15.16211 13.4589,4.24441 28.097,5.26347 41.4824,-4.33789 a 3.7095854,3.7095854 0 0 0 -0.6817,-6.41406 c -32.7697,-14.26056 -67.226,-23.02379 -100.5996,-33.88476 a 3.7095854,3.7095854 0 0 0 -0.3242,-0.0898 c -24.2434,-5.52168 -48.2749,-25.69124 -53.2129,-50.125 16.3245,-25.2236 21.9537,-54.54504 28.17,-83.02344 34.3239,-7.50004 70.4208,-6.74212 104.4707,1.94922 a 3.7095854,3.7095854 0 0 0 0.068,0.0176 c 74.9719,17.63377 138.7578,82.02358 147.336,159.65039 a 3.7095854,3.7095854 0 0 0 0.1972,0.8457 c 3.8647,10.75814 3.1682,16.10136 1.2442,18.76172 -1.9241,2.66037 -6.3377,4.10478 -12.7012,4.66407 -6.3636,0.55929 -14.1358,0.2771 -21.6055,0.94336 -7.4697,0.66625 -14.9361,2.24629 -20.207,7.54101 a 3.7095854,3.7095854 0 0 0 -0.2813,4.91797 c 7.4657,9.4448 21.6421,13.16566 36.2696,13.28906 14.6274,0.12341 29.9764,-3.48403 40.4277,-11.21094 a 3.7095854,3.7095854 0 0 0 1.4961,-2.75195 c 4.3807,-70.22885 -29.2451,-141.24785 -86.1094,-182.61133 a 3.7095854,3.7095854 0 0 0 -0.098,-0.0684 c -46.762,-31.75998 -104.2364,-46.21653 -160.1563,-46.4375 z m -98.1133,28.52149 c 13.4469,-0.0917 26.8077,1.42614 39.8594,4.81445 0.4619,8.42177 0.6527,16.71304 -1.1406,24.47461 -16.1657,39.40871 -38.4885,76.44905 -61.4551,112.68945 a 3.7095854,3.7095854 0 0 0 -0.24609,0.45508 c -3.81266,8.40728 -8.72628,11.51637 -14.37109,12.10547 -5.64482,0.5891 -12.47326,-1.79007 -18.87696,-6.3418 -12.8074,-9.10345 -22.9536,-26.56828 -20.75586,-39.06836 l -0.0332,0.17188 c 3.90634,-17.33558 1.04831,-34.9971 -0.13867,-51.74414 -1.15597,-16.30944 -0.77467,-31.50467 7.64258,-45.28125 22.41512,-7.25018 46.06894,-12.11552 69.51559,-12.27539 z m -106.28708,25.60156 c 3.13762,-0.17235 4.66463,0.42455 5.82227,2.31055 1.15764,1.88599 1.92947,6.12591 0.53125,13.44531 a 3.7095854,3.7095854 0 0 0 -0.008,0.041 c -2.32699,12.97417 -0.88415,25.98934 0.10157,38.4707 0.92387,11.69824 1.31736,22.84992 -1.4336,33.15039 -13.01724,2.52512 -24.37747,-3.31731 -33.27148,-13.41992 -9.18116,-10.42878 -15.10168,-25.24823 -15.93945,-38 3.38682,-7.19945 8.44611,-13.64867 14.46093,-19.08008 a 3.7095854,3.7095854 0 0 0 0.22461,-0.2207 c 3.2826,-3.51524 8.54489,-7.70906 14.07032,-10.96094 5.52542,-3.25188 11.40735,-5.51474 15.4414,-5.73633 z m -68.30078,58.04102 c 3.11636,0.13616 6.29923,1.48455 9.91016,4.98242 1.50673,6.95055 0.14382,11.46687 -3.12696,15.44922 -3.43197,4.17861 -9.33609,7.676 -16.34375,10.79492 -14.01531,6.23783 -32.10544,10.58234 -42.10156,21.81836 a 3.7095854,3.7095854 0 0 0 -0.33398,0.4375 c -23.15446,35.46983 -37.32129,75.33907 -60.94727,109.04492 -1.50521,0.0396 -2.70763,-0.057 -3.30859,-0.26562 -0.81449,-0.2827 -0.87116,-0.42446 -1.04688,-0.79493 -0.35143,-0.74093 -0.29872,-3.6286 0.91602,-7.29687 1.21473,-3.66827 3.22143,-7.96695 5.02344,-11.99219 1.802,-4.02524 3.48843,-7.54639 3.81054,-11.1582 l -0.24804,1.03711 c 13.60109,-34.29786 25.65986,-70.02585 55.45507,-91.86914 l -0.61718,0.36523 c 9.95875,-4.67219 18.76063,-15.36656 27.7832,-24.55664 9.02257,-9.19008 17.93564,-16.31245 25.17578,-15.99609 z m 197.74026,26.46875 c 9.7035,7.84816 15.797,17.36855 17.0097,26.72851 1.2438,9.59941 -2.183,19.19281 -12.4062,27.78711 -10.4114,-3.8745 -15.6222,-13.66826 -16.1934,-24.92773 -0.5539,-10.91954 3.6541,-22.55872 11.5899,-29.58789 z m 193.2304,64.02539 c -2.3776,0.16665 -4.8506,0.55244 -7.4218,1.16797 a 3.7095854,3.7095854 0 0 0 -0.5176,0.16406 c -5.6154,2.25229 -11.0588,4.87842 -16.332,7.77734 -13.6721,5.56703 -24.8253,16.68949 -36.1661,25.09766 -11.4212,8.4678 -22.3313,14.13692 -36.1855,10.5664 a 3.7095854,3.7095854 0 0 0 -0.5352,-0.0977 c -3.4249,-0.3625 -6.1099,-0.34519 -8.4238,0.18164 -2.3139,0.52683 -4.5738,1.80444 -5.6113,4.04883 -1.0375,2.24439 -0.5611,4.54228 0.2285,6.35547 0.7896,1.81319 1.9698,3.44189 3.3867,5.06445 5.3695,6.14863 13.821,12.12611 20.8867,14.13672 13.2777,13.984 31.0603,16.86921 47.9414,13.51758 17.1794,-3.41084 33.7749,-12.88082 46.0528,-23.41211 a 3.7095854,3.7095854 0 0 0 0.7344,-0.85352 c 3.0164,-4.8412 5.5157,-6.28133 6.707,-6.46289 1.1913,-0.18156 2.2974,0.32559 3.8457,2.37695 3.0965,4.10272 5.2045,13.52911 4.1758,19.45703 a 3.7095854,3.7095854 0 0 0 -0.025,0.16993 c -2.0637,16.35223 2.1194,32.02402 11.5078,43.33398 9.2374,11.12797 23.6267,17.80545 41.0801,16.62695 10.4337,3.96935 19.8012,0.63047 22.8183,-6.27929 1.5521,-3.55448 1.0257,-8.00309 -1.6836,-11.36133 -2.7092,-3.35824 -7.2202,-5.69628 -13.4961,-6.80469 a 3.7095854,3.7095854 0 0 0 -1.3828,0.0176 c -13.9125,2.82798 -23.2021,-1.80073 -29.4941,-10.29102 -6.292,-8.49028 -9.1328,-21.26176 -7.8711,-33.99804 a 3.7095854,3.7095854 0 0 0 0.016,-0.51172 c -0.5209,-13.1055 -2.4619,-30.59555 -8.6836,-45.0332 -3.1108,-7.21883 -7.3235,-13.72719 -13.1933,-18.35938 -5.8699,-4.63219 -13.4434,-7.22051 -22.3575,-6.5957 z m -259.85347,12.74414 c -0.097,4.09461 -1.50246,7.87442 -4.04492,11.50976 -3.27753,4.68639 -8.45704,8.9958 -14.61719,12.52735 -11.24684,6.4477 -25.58952,10.03008 -36.63086,10.13281 -0.14573,-4.94212 1.21109,-8.77336 3.76953,-12.11914 3.10269,-4.05751 8.08888,-7.4259 14.09375,-10.18945 11.61233,-5.34421 26.48564,-8.28895 37.42969,-11.86133 z m 260.25387,13.53906 c 2.1645,-0.0922 4.3773,0.12007 6.6231,0.49023 -0.7473,8.04361 -7.8707,17.03196 -18.2598,24.23438 -11.558,8.01279 -26.5964,13.52172 -37.6504,13.81836 -1.6558,-0.26443 -3.1923,-0.23145 -4.8926,-0.21094 -2.0186,0.0243 -4.1189,0.0361 -5.5605,-0.14258 -0.065,-0.008 -0.055,-0.0215 -0.1152,-0.0312 0.096,-0.14781 0.097,-0.18338 0.2265,-0.35937 9.4661,-6.87701 18.8342,-16.10717 28.627,-23.70703 9.993,-7.75531 20.2561,-13.63402 31.0019,-14.0918 z m -179.4238,10.44727 c 11.8021,4.66156 23.7556,8.07197 31.5508,16.35742 1.5372,3.85938 2.0468,6.72869 1.918,8.27929 -0.1365,1.64281 -0.4224,1.81722 -1.1036,2.16797 -1.3623,0.70151 -6.6714,0.28796 -12.3808,-2.61523 -5.7095,-2.90319 -11.7638,-7.71929 -15.6211,-12.94531 -2.8305,-3.83479 -4.3886,-7.65128 -4.3633,-11.24414 z"/>
    </g>
  </g>

</svg>
  <path d="M745 248L690 196" stroke="#6F6555" stroke-width="1" fill="none"/><circle cx="745" cy="248" r="2.2" fill="#2A241B"/><text x="682" y="191" font-family="'JetBrains Mono', 'DejaVu Sans Mono', monospace" font-size="15" letter-spacing="1.5" fill="#6F6555" text-anchor="end">rostrum &#183; live readout</text>
  <path d="M885 295L1000 268" stroke="#6F6555" stroke-width="1" fill="none"/><circle cx="885" cy="295" r="2.2" fill="#2A241B"/><text x="1006" y="273" font-family="'JetBrains Mono', 'DejaVu Sans Mono', monospace" font-size="15" letter-spacing="1.5" fill="#6F6555" text-anchor="start">elytra &#183; models</text>
  <path d="M852 392L1000 430" stroke="#6F6555" stroke-width="1" fill="none"/><circle cx="852" cy="392" r="2.2" fill="#2A241B"/><text x="1006" y="435" font-family="'JetBrains Mono', 'DejaVu Sans Mono', monospace" font-size="15" letter-spacing="1.5" fill="#6F6555" text-anchor="start">abdomen &#183; tokens</text>

  <!-- wordmark -->
  <text x="70" y="318" font-family="Fraunces, 'Liberation Serif', Georgia, serif" font-size="168" font-weight="600" letter-spacing="-3" fill="#2A241B">Weevil</text>
  <rect x="74" y="346" width="120" height="3" fill="url(#rule-grad)"/>
  <text x="72" y="392" font-family="Fraunces, 'Liberation Serif', Georgia, serif" font-size="30" fill="#2A241B">Know exactly what GitHub Copilot is costing you.</text>
  <text x="72" y="430" font-family="'JetBrains Mono', 'DejaVu Sans Mono', monospace" font-size="15" letter-spacing="0.5" fill="#6F6555">fig.1 &#8212; real-time spend, read from Copilot's local OTel logs &#183; no sign-in</text>

  <!-- footer metadata -->
  <line x1="70" y1="548" x2="1130" y2="548" stroke="rgba(42,36,27,0.20)" stroke-width="1"/>
  <text x="70" y="570" font-family="'JetBrains Mono', 'DejaVu Sans Mono', monospace" font-size="14" letter-spacing="2" fill="#6F6555">VS&#160;CODE&#160;EXTENSION &#160;&#183;&#160; DUCKDB &#160;&#183;&#160; LOCAL-FIRST &#160;&#183;&#160; MIT</text>
  <text x="1130" y="570" font-family="'JetBrains Mono', 'DejaVu Sans Mono', monospace" font-size="14" letter-spacing="1" fill="#6F6555" text-anchor="end">github.com/RedPandaMC/Weevil</text>
</svg>