<svg xmlns="http://www.w3.org/2000/svg" width="480" height="100" viewBox="0 0 480 100">
  <g transform="translate(57, 0)">
    <!-- Icon: white rounded square with dark duck, 88×88 at y=6 -->
    <g transform="translate(0,6)">
      <rect width="88" height="88" rx="19" fill="#FFFFFF"/>
      <!-- Duck paths from viewBox 0 0 490 491, scaled to 55×55 at offset (16.5, 16.5) -->
      <g transform="translate(16.5,16.5) scale(0.1122)">
        <path d="M-0.00,374.50 L-0.00,294.50 L168.75,294.50 C233.93,300.98 260.17,382.52 210.95,426.43 C163.42,465.13 99.11,431.86 88.63,381.25 C59.42,382.53 22.91,383.36 -0.00,374.50 Z" fill="#0A0A0A"/>
        <path d="M337.75,490.92 L228.75,490.97 C313.83,448.76 293.14,315.53 207.00,291.04 L207.01,146.25 C211.57,46.43 334.43,38.09 356.05,121.03 C366.56,161.34 348.45,195.98 325.35,212.75 C322.71,214.66 307.17,222.42 306.40,225.59 C304.60,233.02 339.68,297.10 344.66,306.75 C381.72,371.24 410.52,437.51 337.75,490.92 Z" fill="#0A0A0A"/>
        <path d="M376.57,141.50 C400.83,164.97 429.17,187.34 476.34,187.42 C486.83,191.21 488.70,200.40 488.11,214.28 C486.14,225.44 451.49,229.82 436.75,230.49 C427.23,230.92 334.63,229.96 333.75,229.25 C333.06,228.69 333.72,228.14 333.75,228.10 C359.74,210.92 375.91,183.82 376.57,141.50 Z" fill="#0A0A0A"/>
        <path d="M305.97,120.56 C324.53,134.97 308.57,164.98 285.47,151.47 C269.05,137.87 283.12,110.17 305.97,120.56 Z" fill="#FFFFFF"/>
      </g>
    </g>
    <!-- MALLARD wordmark — white for dark backgrounds -->
    <text
      x="110"
      y="68"
      font-family="'Helvetica Neue', Helvetica, Arial, sans-serif"
      font-weight="700"
      font-size="52"
      letter-spacing="4"
      fill="#FFFFFF">MALLARD</text>
  </g>
</svg>
