<svg xmlns="http://www.w3.org/2000/svg" viewBox="0 0 24 24" fill="currentColor">
  <path d="M12 2.5c-.6 0-1 .4-1 .9v2.2C9.7 5.9 8.5 7.1 8.5 8.6c-.8.3-1.4.9-1.4 1.7l-2.3-1a.5.5 0 0 0-.6.7l1.9 3.1-1.6 1.1a.5.5 0 0 0 .1.9l2.8.7c.5 1.6 1.9 2.7 3.6 2.7s3.1-1.1 3.6-2.7l2.8-.7a.5.5 0 0 0 .1-.9l-1.6-1.1 1.9-3.1a.5.5 0 0 0-.6-.7l-2.3 1c0-.8-.6-1.4-1.4-1.7 0-1.5-1.2-2.7-2.5-3V3.4c0-.5-.4-.9-1-.9zm0 4c1.1 0 2 .9 2 2a2 2 0 0 1-4 0c0-1.1.9-2 2-2zm-1 1.5a.5.5 0 1 0 0 1 .5.5 0 0 0 0-1zm2 0a.5.5 0 1 0 0 1 .5.5 0 0 0 0-1zm-1 4.5c1.4 0 2.5.9 2.8 2.2l-1.3-.3-.5 1.6H12h-.9l-.5-1.6-1.3.3C9.5 13.4 10.6 12.5 12 12.5z"/>
</svg>
