<svg xmlns="http://www.w3.org/2000/svg" viewBox="0 0 16 16" fill="currentColor">
  <!-- Bold top-down weevil, legible at 16px; tinted via currentColor. -->
  <g stroke="currentColor" stroke-linecap="round" fill="none">
    <!-- Antennae -->
    <path d="M8.4 4.2 L10 2.6" stroke-width="1.1" />
    <path d="M7.6 4.2 L6 2.6" stroke-width="1.1" />
    <!-- Legs -->
    <path d="M9.6 7.2 L12.4 6" stroke-width="1.2" />
    <path d="M10 10 L13 10.2" stroke-width="1.2" />
    <path d="M6.4 7.2 L3.6 6" stroke-width="1.2" />
    <path d="M6 10 L3 10.2" stroke-width="1.2" />
  </g>
  <!-- Snout -->
  <path d="M7.2 5 L7.2 2.4 Q7.2 1.8 8 1.8 Q8.8 1.8 8.8 2.4 L8.8 5 Z" />
  <!-- Head -->
  <path d="M8 4.4 L6 5.4 L5.7 7 L6.8 8 L9.2 8 L10.3 7 L10 5.4 Z" />
  <!-- Body shield with central seam -->
  <path d="M7.5 8.2 L5.6 9.1 L5.4 11.4 L6.6 13.2 L7.5 14.2 Z" />
  <path d="M8.5 8.2 L10.4 9.1 L10.6 11.4 L9.4 13.2 L8.5 14.2 Z" />
</svg>
